<svg xmlns="http://www.w3.org/2000/svg" viewBox="0 0 1200 800" role="img" aria-labelledby="title desc"><title id="title">Bộ vật dụng cho hành trình thuận lợi</title><desc id="desc">Flat lay minh họa túi nhỏ, tai nghe, sổ, điện thoại và lịch trình.</desc><rect width="1200" height="800" fill="#f1e9da"/><path d="M0 0h1200v800H0z" fill="none" stroke="#d9c9ad" stroke-width="45"/><circle cx="1030" cy="135" r="115" fill="#8abbb5" opacity=".45"/><rect x="110" y="120" width="400" height="540" rx="40" fill="#16707a" transform="rotate(-5 310 390)"/><path d="M190 180h230v90H190z" fill="#f5dca8"/><path d="M240 345h140M240 405h180M240 465h120" stroke="#d7efeb" stroke-width="22" stroke-linecap="round"/><rect x="570" y="130" width="230" height="420" rx="42" fill="#173f4a" transform="rotate(8 685 340)"/><rect x="600" y="175" width="170" height="310" rx="20" fill="#eef6f4"/><circle cx="685" cy="515" r="16" fill="#a6cac6"/><path d="M930 300c-95 0-155 65-155 145s60 145 155 145" fill="none" stroke="#d49a47" stroke-width="42"/><path d="M930 300c95 0 155 65 155 145s-60 145-155 145" fill="none" stroke="#d49a47" stroke-width="42"/><rect x="855" y="535" width="55" height="105" rx="25" fill="#b97957"/><rect x="950" y="535" width="55" height="105" rx="25" fill="#b97957"/><path d="M560 680h510" stroke="#83b3af" stroke-width="18" stroke-linecap="round"/></svg>
